<?xml version="1.0" encoding="UTF-8" standalone="no"?>
<!DOCTYPE svg PUBLIC "-//W3C//DTD SVG 1.1//EN" "http://www.w3.org/Graphics/SVG/1.1/DTD/svg11.dtd">
<!-- Generated by Microsoft Visio, SVG Export roofline_analysis.svg Page-1 -->
<svg xmlns="http://www.w3.org/2000/svg" xmlns:xlink="http://www.w3.org/1999/xlink" xmlns:ev="http://www.w3.org/2001/xml-events"
		width="4.49042in" height="2.38006in" viewBox="0 0 323.31 171.364" xml:space="preserve" color-interpolation-filters="sRGB"
		class="st33">
	<style type="text/css">
	<![CDATA[
		.st1 {stroke:#aeaeae;stroke-dasharray:2.1,2.1;stroke-linecap:round;stroke-linejoin:round;stroke-width:0.7}
		.st2 {fill:#ffffff;stroke:none;stroke-linecap:round;stroke-linejoin:round;stroke-width:0.75}
		.st3 {stroke:#339933;stroke-linecap:butt;stroke-opacity:0.9;stroke-width:1.5}
		.st4 {stroke:#0066cc;stroke-linecap:butt;stroke-opacity:0.7;stroke-width:1.5}
		.st5 {stroke:#ff0000;stroke-linecap:butt;stroke-opacity:0.5;stroke-width:1.5}
		.st6 {stroke:#ff0000;stroke-linecap:butt;stroke-opacity:0.7;stroke-width:1.5}
		.st7 {fill:none;stroke:none;stroke-linecap:round;stroke-linejoin:round;stroke-width:2}
		.st8 {fill:#000000;font-family:Arial;font-size:0.75em}
		.st9 {stroke:#0066cc;stroke-linecap:butt;stroke-opacity:0.9;stroke-width:1.5}
		.st10 {stroke:#339933;stroke-linecap:butt;stroke-width:1.5}
		.st11 {fill:#000000;font-family:Arial;font-size:0.791656em}
		.st12 {stroke:#000000;stroke-linecap:butt;stroke-width:0.75}
		.st13 {fill:#000000;font-family:Arial;font-size:0.833336em;font-weight:bold}
		.st14 {baseline-shift:-32.4947%;font-size:0.649894em}
		.st15 {font-size:1em}
		.st16 {stroke:#3f3f3f;stroke-linecap:round;stroke-linejoin:round;stroke-width:1}
		.st17 {stroke:#339933;stroke-dasharray:3,1.5;stroke-linecap:butt;stroke-opacity:0.8;stroke-width:0.75}
		.st18 {marker-start:url(#mrkr5-156);stroke:#262626;stroke-linecap:round;stroke-linejoin:round;stroke-opacity:0.8;stroke-width:1}
		.st19 {fill:#262626;fill-opacity:0.8;stroke:#262626;stroke-opacity:0.8;stroke-width:0.35714285714286}
		.st20 {fill:#000000;font-family:Arial;font-size:0.666664em}
		.st21 {baseline-shift:-20.3076%;font-size:0.406152em}
		.st22 {fill:#339933;font-family:Arial;font-size:0.666664em}
		.st23 {marker-start:url(#mrkr5-175);stroke:#339933;stroke-linecap:round;stroke-linejoin:round;stroke-opacity:0.8;stroke-width:1}
		.st24 {fill:#339933;fill-opacity:0.8;stroke:#339933;stroke-opacity:0.8;stroke-width:0.35714285714286}
		.st25 {fill:#ff3131;font-family:Arial;font-size:0.666664em}
		.st26 {fill:#a620ff;font-family:Arial;font-size:0.666664em}
		.st27 {marker-start:url(#mrkr5-190);stroke:#ff0000;stroke-linecap:round;stroke-linejoin:round;stroke-opacity:0.9;stroke-width:1}
		.st28 {fill:#ff0000;fill-opacity:0.9;stroke:#ff0000;stroke-opacity:0.9;stroke-width:0.35714285714286}
		.st29 {marker-start:url(#mrkr5-197);stroke:#ad33ff;stroke-linecap:round;stroke-linejoin:round;stroke-opacity:0.9;stroke-width:1}
		.st30 {fill:#ad33ff;fill-opacity:0.9;stroke:#ad33ff;stroke-opacity:0.9;stroke-width:0.35714285714286}
		.st31 {fill:#ff4646;stroke:#ff4646;stroke-linecap:round;stroke-linejoin:round;stroke-width:1.5}
		.st32 {fill:#ad33ff;stroke:#ad33ff;stroke-linecap:round;stroke-linejoin:round;stroke-width:1.5}
		.st33 {fill:none;fill-rule:evenodd;font-size:12px;overflow:visible;stroke-linecap:square;stroke-miterlimit:3}
	]]>
	</style>

	<defs id="Markers">
		<g id="lend5">
			<path d="M 2 1 L 0 0 L 1.98117 -0.993387 C 1.67173 -0.364515 1.67301 0.372641 1.98465 1.00043 " style="stroke:none"/>
		</g>
		<marker id="mrkr5-156" class="st19" refX="4.54" orient="auto" markerUnits="strokeWidth" overflow="visible">
			<use xlink:href="#lend5" transform="scale(2.8) "/>
		</marker>
		<marker id="mrkr5-175" class="st24" refX="4.54" orient="auto" markerUnits="strokeWidth" overflow="visible">
			<use xlink:href="#lend5" transform="scale(2.8) "/>
		</marker>
		<marker id="mrkr5-190" class="st28" refX="4.54" orient="auto" markerUnits="strokeWidth" overflow="visible">
			<use xlink:href="#lend5" transform="scale(2.8) "/>
		</marker>
		<marker id="mrkr5-197" class="st30" refX="4.54" orient="auto" markerUnits="strokeWidth" overflow="visible">
			<use xlink:href="#lend5" transform="scale(2.8) "/>
		</marker>
	</defs>
	<g>
		<title>Page-1</title>
		<g id="group17456-1" transform="translate(58.0971,-58.0444)">
			<title>Sheet.17456</title>
			<g id="shape17163-2">
				<title>Sheet.17163</title>
				<path d="M0 171.36 L232.87 171.36" class="st1"/>
			</g>
			<g id="shape17164-5" transform="translate(0,-22.572)">
				<title>Sheet.17164</title>
				<path d="M0 171.36 L232.87 171.36" class="st1"/>
			</g>
			<g id="shape17165-8" transform="translate(0,-90.288)">
				<title>Sheet.17165</title>
				<path d="M0 171.36 L232.87 171.36" class="st1"/>
			</g>
			<g id="shape17166-11" transform="translate(0,-67.716)">
				<title>Sheet.17166</title>
				<path d="M0 171.36 L232.87 171.36" class="st1"/>
			</g>
			<g id="shape17167-14" transform="translate(0,-45.144)">
				<title>Sheet.17167</title>
				<path d="M0 171.36 L232.87 171.36" class="st1"/>
			</g>
		</g>
		<g id="shape17841-17" transform="translate(0.375,-16.2844)">
			<title>Sheet.17841</title>
			<rect x="0" y="156.964" width="322.56" height="14.4" class="st2"/>
		</g>
		<g id="shape17712-19" transform="translate(161.501,272.256) rotate(-37.2659) scale(1,-1)">
			<title>Sheet.17712</title>
			<path d="M0 171.36 L177.49 171.36" class="st3"/>
		</g>
		<g id="shape17715-22" transform="translate(161.407,272.381) rotate(-37.2864) scale(1,-1)">
			<title>Sheet.17715</title>
			<path d="M0 171.36 L118.63 171.36" class="st4"/>
		</g>
		<g id="shape17717-25" transform="translate(161.501,272.256) rotate(-37.2659) scale(1,-1)">
			<title>Sheet.17717</title>
			<path d="M0 171.36 L88.87 171.36" class="st5"/>
		</g>
		<g id="group17837-28" transform="translate(72.375,-155.964)">
			<title>Sheet.17837</title>
			<g id="shape17201-29" transform="translate(2.44565,-7.19999)">
				<title>Sheet.17201</title>
				<path d="M0 171.36 L12.08 171.36" class="st6"/>
			</g>
			<g id="shape17202-32">
				<title>Sheet.17202</title>
				<desc>FP16</desc>
				<rect x="0" y="156.964" width="41.0262" height="14.4" class="st7"/>
				<text x="18.51" y="167.09" class="st8">FP16</text>			</g>
		</g>
		<g id="group18415-35" transform="translate(125.288,-155.964)">
			<title>Sheet.18415</title>
			<g id="shape17198-36" transform="translate(5.16795,-7.19999)">
				<title>Sheet.17198</title>
				<path d="M0 171.36 L12.08 171.36" class="st9"/>
			</g>
			<g id="shape17199-39">
				<title>Sheet.17199</title>
				<desc>6-bit BitMoD</desc>
				<rect x="0" y="156.964" width="71.8587" height="14.4" class="st7"/>
				<text x="21.35" y="167.09" class="st8">6-bit BitMoD</text>			</g>
		</g>
		<g id="group18416-42" transform="translate(208.088,-155.964)">
			<title>Sheet.18416</title>
			<g id="shape17204-43" transform="translate(5.16795,-7.19999)">
				<title>Sheet.17204</title>
				<path d="M0 171.36 L12.08 171.36" class="st10"/>
			</g>
			<g id="shape17205-46">
				<title>Sheet.17205</title>
				<desc>4-bit BitMoD</desc>
				<rect x="0" y="156.964" width="71.8587" height="14.4" class="st7"/>
				<text x="21.35" y="167.09" class="st8">4-bit BitMoD</text>			</g>
		</g>
		<g id="group17842-49" transform="translate(17.6233,-1)">
			<title>Sheet.17842</title>
			<g id="shape17168-50" transform="translate(7.95491,-94.994)">
				<title>Sheet.17168</title>
				<desc>90</desc>
				<rect x="0" y="156.964" width="25.9135" height="14.4" class="st7"/>
				<text x="14.35" y="167.25" class="st11">90</text>			</g>
			<g id="shape17169-53" transform="translate(36.6177,-147.332)">
				<title>Sheet.17169</title>
				<path d="M0 171.36 L3.5 171.36" class="st12"/>
			</g>
			<g id="shape17170-56" transform="translate(36.6177,-124.763)">
				<title>Sheet.17170</title>
				<path d="M0 171.36 L3.5 171.36" class="st12"/>
			</g>
			<g id="shape17171-59" transform="translate(36.6177,-102.194)">
				<title>Sheet.17171</title>
				<path d="M0 171.36 L3.5 171.36" class="st12"/>
			</g>
			<g id="shape17172-62" transform="translate(36.6177,-79.6247)">
				<title>Sheet.17172</title>
				<path d="M0 171.36 L3.5 171.36" class="st12"/>
			</g>
			<g id="shape17173-65" transform="translate(36.6177,-57.0555)">
				<title>Sheet.17173</title>
				<path d="M0 171.36 L3.5 171.36" class="st12"/>
			</g>
			<g id="shape17174-68" transform="translate(56.02,8.52651E-14)">
				<title>Sheet.17174</title>
				<desc>Arithmetic Intensity (FLOPs / Byte)</desc>
				<rect x="0" y="155.461" width="204.66" height="15.9034" class="st7"/>
				<text x="20.79" y="166.66" class="st13">Arithmetic Intensity (FLOPs<tspan dy="-0.287em" class="st14"> </tspan><tspan
							dy="0.186em" class="st15">/</tspan><tspan dy="-0.287em" class="st14"> </tspan><tspan dy="0.186em"
							class="st15">Byte)</tspan></text>			</g>
			<g id="shape17175-75" transform="translate(444.055,136.878) rotate(90)">
				<title>Sheet.17175</title>
				<path d="M0 171.36 L3.5 171.36" class="st12"/>
			</g>
			<g id="shape17176-78" transform="translate(397.54,136.878) rotate(90)">
				<title>Sheet.17176</title>
				<path d="M0 171.36 L3.5 171.36" class="st12"/>
			</g>
			<g id="shape17177-81" transform="translate(351.024,136.878) rotate(90)">
				<title>Sheet.17177</title>
				<path d="M0 171.36 L3.5 171.36" class="st12"/>
			</g>
			<g id="shape17178-84" transform="translate(304.509,136.878) rotate(90)">
				<title>Sheet.17178</title>
				<path d="M0 171.36 L3.5 171.36" class="st12"/>
			</g>
			<g id="shape17179-87" transform="translate(257.994,136.878) rotate(90)">
				<title>Sheet.17179</title>
				<path d="M0 171.36 L3.5 171.36" class="st12"/>
			</g>
			<g id="shape17180-90" transform="translate(260.23,-16.2924)">
				<title>Sheet.17180</title>
				<desc>250</desc>
				<rect x="0" y="156.964" width="24.9217" height="14.4" class="st7"/>
				<text x="4.54" y="167.25" class="st11">250</text>			</g>
			<g id="shape17181-93" transform="translate(213.715,-16.2924)">
				<title>Sheet.17181</title>
				<desc>200</desc>
				<rect x="0" y="156.964" width="24.9217" height="14.4" class="st7"/>
				<text x="4.54" y="167.25" class="st11">200</text>			</g>
			<g id="shape17182-96" transform="translate(167.199,-16.2924)">
				<title>Sheet.17182</title>
				<desc>150</desc>
				<rect x="0" y="156.964" width="24.9217" height="14.4" class="st7"/>
				<text x="4.54" y="167.25" class="st11">150</text>			</g>
			<g id="shape17183-99" transform="translate(120.684,-16.2924)">
				<title>Sheet.17183</title>
				<desc>100</desc>
				<rect x="0" y="156.964" width="24.9217" height="14.4" class="st7"/>
				<text x="4.54" y="167.25" class="st11">100</text>			</g>
			<g id="shape17184-102" transform="translate(74.1684,-16.2924)">
				<title>Sheet.17184</title>
				<desc>50</desc>
				<rect x="0" y="156.964" width="24.9217" height="14.4" class="st7"/>
				<text x="7.18" y="167.25" class="st11">50</text>			</g>
			<g id="shape17185-105" transform="translate(27.653,-16.2924)">
				<title>Sheet.17185</title>
				<desc>0</desc>
				<rect x="0" y="156.964" width="24.9217" height="14.4" class="st7"/>
				<text x="9.82" y="167.25" class="st11">0</text>			</g>
			<g id="shape17186-108" transform="translate(7.95491,-27.2863)">
				<title>Sheet.17186</title>
				<desc>0</desc>
				<rect x="0" y="156.964" width="25.9135" height="14.4" class="st7"/>
				<text x="19.63" y="167.25" class="st11">0</text>			</g>
			<g id="shape17187-111" transform="translate(-155.461,116.685) rotate(-90)">
				<title>Sheet.17187</title>
				<desc>TFLOPS</desc>
				<rect x="0" y="155.461" width="77.13" height="15.9034" class="st7"/>
				<text x="18.84" y="166.66" class="st13">TFLOPS</text>			</g>
			<g id="shape17188-114" transform="translate(7.95491,-49.8555)">
				<title>Sheet.17188</title>
				<desc>30</desc>
				<rect x="0" y="156.964" width="25.9135" height="14.4" class="st7"/>
				<text x="14.35" y="167.25" class="st11">30</text>			</g>
			<g id="shape17189-117" transform="translate(7.95491,-72.4247)">
				<title>Sheet.17189</title>
				<desc>60</desc>
				<rect x="0" y="156.964" width="25.9135" height="14.4" class="st7"/>
				<text x="14.35" y="167.25" class="st11">60</text>			</g>
			<g id="shape17190-120" transform="translate(7.95491,-117.563)">
				<title>Sheet.17190</title>
				<desc>120</desc>
				<rect x="0" y="156.964" width="25.9135" height="14.4" class="st7"/>
				<text x="9.06" y="167.25" class="st11">120</text>			</g>
			<g id="shape17191-123" transform="translate(7.95491,-140.132)">
				<title>Sheet.17191</title>
				<desc>150</desc>
				<rect x="0" y="156.964" width="25.9135" height="14.4" class="st7"/>
				<text x="9.06" y="167.25" class="st11">150</text>			</g>
			<g id="shape17192-126" transform="translate(-131.251,136.878) rotate(-90)">
				<title>Sheet.17192</title>
				<path d="M0 171.36 L117.52 171.36" class="st16"/>
			</g>
			<g id="shape17193-129" transform="translate(278.062,308.243) rotate(180)">
				<title>Sheet.17193</title>
				<path d="M0 171.36 L237.67 171.36" class="st16"/>
			</g>
			<g id="shape17194-132" transform="translate(36.6177,-34.4863)">
				<title>Sheet.17194</title>
				<path d="M0 171.36 L3.5 171.36" class="st12"/>
			</g>
			<g id="shape17195-135" transform="translate(211.478,136.878) rotate(90)">
				<title>Sheet.17195</title>
				<path d="M0 171.36 L3.5 171.36" class="st12"/>
			</g>
		</g>
		<g id="shape17711-138" transform="translate(198.507,199.889) scale(1,-1)">
			<title>Sheet.17711</title>
			<path d="M0 171.36 L92.42 171.36" class="st3"/>
		</g>
		<g id="shape17210-141" transform="translate(370.355,135.76) rotate(90) scale(-1,1)">
			<title>Sheet.17210</title>
			<path d="M0 171.36 L107.36 171.36" class="st17"/>
		</g>
		<g id="shape17714-144" transform="translate(151.467,235.729) scale(1,-1)">
			<title>Sheet.17714</title>
			<path d="M0 171.36 L139.46 171.36" class="st4"/>
		</g>
		<g id="shape17716-147" transform="translate(127.91,253.667) scale(1,-1)">
			<title>Sheet.17716</title>
			<path d="M0 171.36 L163.02 171.36" class="st5"/>
		</g>
		<g id="shape17208-150" transform="translate(218.38,-102.16) rotate(20.7933) scale(-1,1)">
			<title>Sheet.17208</title>
			<path d="M4.44 170.72 L4.79 170.79 A27.5535 5.07221 -4.37 0 0 36.1 169.76" class="st18"/>
		</g>
		<g id="shape17209-157" transform="translate(162.735,-126.264) scale(-1,1)">
			<title>Sheet.17209</title>
			<desc>Memory Bandwidth 935.8 GB / s</desc>
			<rect x="0" y="150.124" width="80.01" height="21.24" class="st7"/>
			<text x="-74.24" y="158.34" transform="scale(-1,1)" class="st20">Memory Bandwidth <tspan x="-60.92" dy="1.2em"
						class="st15">935.8 GB</tspan><tspan dy="-0.287em" class="st21"> </tspan><tspan dy="0.116em" class="st15">/</tspan><tspan
						dy="-0.287em" class="st21"> </tspan><tspan dy="0.116em" class="st15">s</tspan></text>		</g>
		<g id="shape17211-165" transform="translate(207.015,-58.33)">
			<title>Sheet.17211</title>
			<desc>Downstream Task Arith. Inten. ≥ 152</desc>
			<rect x="0" y="150.124" width="81.36" height="21.24" class="st7"/>
			<text x="8.45" y="158.54" class="st22">Downstream Task <tspan x="9.13" dy="1.1em" class="st15">Arith. Inten. </tspan>≥ 152</text>		</g>
		<g id="shape17212-169" transform="translate(110.884,-13.5177) rotate(-32.4211)">
			<title>Sheet.17212</title>
			<path d="M3.93 169.89 L4.24 170.08 A24.2663 11.5784 -14.75 0 0 31.07 167.62" class="st23"/>
		</g>
		<g id="shape17704-176" transform="translate(53.655,-81.1)">
			<title>Sheet.17704</title>
			<desc>FP16 Generation Arith. Inten. ≈ 1</desc>
			<rect x="0" y="150.124" width="75.6" height="21.24" class="st7"/>
			<text x="7.34" y="158.54" class="st25">FP16 Generation <tspan x="10.7" dy="1.1em" class="st15">Arith. Inten. </tspan>≈ 1</text>		</g>
		<g id="shape17708-180" transform="translate(92.535,-36.46)">
			<title>Sheet.17708</title>
			<desc>3-bit BitMoD Generation Arith. Inten. ≈ 5.2</desc>
			<rect x="0" y="150.124" width="91.8" height="21.24" class="st7"/>
			<text x="2.99" y="158.54" class="st26">3-bit BitMoD Generation  <tspan x="15.47" dy="1.1em" class="st15">Arith. Inten. </tspan>≈ 5.2</text>		</g>
		<g id="shape17703-184" transform="translate(220.423,180.641) rotate(-72.8457) scale(1,-1)">
			<title>Sheet.17703</title>
			<path d="M4.37 170.22 L4.72 170.32 A33.8538 7.5056 -5.36 0 0 44.29 168.99" class="st27"/>
		</g>
		<g id="shape17706-191" transform="translate(40.507,-37.4139) rotate(-10.0773)">
			<title>Sheet.17706</title>
			<path d="M4.42 170.81 L4.77 170.89 A23.8603 4.99987 -5.03 0 0 31.23 169.78" class="st29"/>
		</g>
		<g id="shape17215-198" transform="translate(60.963,-34.3785) scale(-1,1)">
			<title>dot.17215</title>
			<path d="M0 169.1 A2.26803 2.26803 0 0 1 4.54 169.1 A2.26803 2.26803 0 1 1 0 169.1 Z" class="st31"/>
		</g>
		<g id="shape17216-200" transform="translate(68.6299,-39.664) scale(-1,1)">
			<title>dot.17216</title>
			<path d="M0 169.1 A2.26803 2.26803 0 0 1 4.54 169.1 A2.26803 2.26803 0 1 1 0 169.1 Z" class="st32"/>
		</g>
	</g>
</svg>
